<?xml version="1.0" encoding="utf-8"?>
<!-- Generator: Adobe Illustrator 20.1.0, SVG Export Plug-In . SVG Version: 6.00 Build 0)  -->
<svg version="1.1" id="Layer_1" xmlns="http://www.w3.org/2000/svg" xmlns:xlink="http://www.w3.org/1999/xlink" x="0px" y="0px"
	 viewBox="0 0 283.5 80.2" style="enable-background:new 0 0 283.5 80.2;" xml:space="preserve">
<style type="text/css">
	.st0{fill:#EE1C2E;}
	.st1{fill:#00539F;}
</style>
<g id="XMLID_110_">
	<path id="XMLID_71_" class="st0" d="M2.3,1.1h57.6v12.5c-4.1-3.4-12.8-4.8-22-4.8V43c0,5.1,0.4,6.5,2.4,9.1H21.9
		c2-2.6,2.4-4,2.4-9.1V8.8c-9.3,0-17.9,1.4-22,4.8V1.1z M87.5,44.4c5.9,0,15.8-1.4,19.6-4.8v12.5H65.2c2-2.4,2.4-4,2.4-8.9V10
		c0-4.9-0.4-6.5-2.4-8.9h39.8v12.5c-3.9-3.4-13.7-4.8-19.6-4.8h-4.7v13.6h3.4c3.4,0,8.5-0.1,12-1.4v10.1c-3.4-1.2-8.6-1.4-12-1.4
		h-3.4v14.7H87.5z M142.5,20.7c10,1.4,18.3,4.9,18.3,15.8c0,12.8-12.1,16.8-25.2,16.8c-9.1-0.1-16.8-0.9-22.5-3.2V38.6
		c8.1,5.3,16.4,6.9,22.5,6.9c6.3,0,12.2-1.5,12.2-6.3s-5.4-6-16.5-7.7c-9.6-1.5-18.2-5.5-18.3-15C113,3.9,125,0,136.5,0
		c7.4,0,14.7,0.9,21.3,3.1v12.3c-5.5-4.9-13.8-7.7-21.9-7.7c-5.5,0-10.6,1.8-10.6,5.8C125.3,18.7,133,19.4,142.5,20.7z M199.5,0
		c6,0,11.2,0.7,15.3,1.8v12.7c-4.1-4.2-8.9-6.8-15.2-6.8c-11.6,0-19.3,8.1-19.3,18.9s7.7,18.9,19.3,18.9c6.3,0,11.2-2.6,15.2-6.8
		v12.7c-4.2,1.1-9.3,1.9-15.3,1.9c-20.1,0-34.6-10-34.6-26.7C164.9,9.9,179.4,0,199.5,0z"/>
	<path id="XMLID_68_" class="st0" d="M250.9,0c-20.7,0-32.5,12-32.5,26.6c0,14.5,11.8,26.6,32.5,26.6c20.7,0,32.5-12.1,32.5-26.6
		C283.5,12,271.6,0,250.9,0z M250.9,45.5c-10.4,0-17.2-8.6-17.2-18.9c0-10.4,6.8-18.9,17.2-18.9c10.4,0,17.2,8.5,17.2,18.9
		C268.1,36.9,261.4,45.5,250.9,45.5z"/>
	<path id="XMLID_67_" class="st1" d="M248.1,66h34.8c0,0,0.1,0,0.1,0l0,0c0,0,0,0,0,0c0.1,0.1,0.1,0.2,0,0.3c0,0-0.1,0-0.1,0.1
		l-0.1,0c-4,1.8-9.4,7.5-9.4,7.5c-4,3.8-7.1,6.3-13.5,6.3h-33.1c-0.1,0-0.1-0.1-0.2-0.2c0,0,0,0,0,0c0-0.1,0-0.1,0.1-0.2
		c0,0,0.1-0.1,0.1-0.1c3.6-2,9.1-7.7,9.1-7.7C238,69.5,242.4,66,248.1,66"/>
	<path id="XMLID_66_" class="st1" d="M191.5,66h34.8c0,0,0.1,0,0.1,0l0,0c0,0,0,0,0,0c0.1,0.1,0.1,0.2,0,0.3c0,0-0.1,0-0.1,0.1
		l-0.1,0c-4,1.8-9.4,7.5-9.4,7.5c-4,3.8-7.1,6.3-13.5,6.3H170c-0.1,0-0.1-0.1-0.2-0.2c0,0,0,0,0,0c0-0.1,0-0.1,0.1-0.2
		c0,0,0.1-0.1,0.1-0.1c3.6-2,9.1-7.7,9.1-7.7C181.4,69.5,185.8,66,191.5,66"/>
	<path id="XMLID_65_" class="st1" d="M134.8,66h34.8c0,0,0.1,0,0.1,0l0,0c0,0,0,0,0,0c0.1,0.1,0.1,0.2,0,0.3c0,0-0.1,0-0.1,0.1
		l-0.1,0c-4,1.8-9.4,7.5-9.4,7.5c-4,3.8-7.1,6.3-13.5,6.3h-33.1c-0.1,0-0.1-0.1-0.2-0.2c0,0,0,0,0,0c0-0.1,0-0.1,0.1-0.2
		c0,0,0.1-0.1,0.1-0.1c3.6-2,9.1-7.7,9.1-7.7C124.7,69.5,129.2,66,134.8,66"/>
	<path id="XMLID_58_" class="st1" d="M78.2,66h34.8c0,0,0.1,0,0.1,0l0,0c0,0,0,0,0,0c0.1,0.1,0.1,0.2,0,0.3c0,0-0.1,0-0.1,0.1
		l-0.1,0c-4,1.8-9.4,7.5-9.4,7.5c-4,3.8-7.1,6.3-13.5,6.3H56.8c-0.1,0-0.1-0.1-0.2-0.2c0,0,0,0,0,0c0-0.1,0-0.1,0.1-0.2
		c0,0,0.1-0.1,0.1-0.1c3.6-2,9.1-7.7,9.1-7.7C68.1,69.5,72.5,66,78.2,66"/>
	<path id="XMLID_57_" class="st1" d="M21.6,66h34.8c0,0,0.1,0,0.1,0l0,0c0,0,0,0,0,0c0.1,0.1,0.1,0.2,0,0.3c0,0-0.1,0-0.1,0.1
		l-0.1,0c-4,1.8-9.4,7.5-9.4,7.5c-4,3.8-7.1,6.3-13.5,6.3H0.2C0.1,80.2,0,80.1,0,80c0,0,0,0,0,0c0-0.1,0-0.1,0.1-0.2
		c0,0,0.1-0.1,0.1-0.1c3.6-2,9.1-7.7,9.1-7.7C11.5,69.5,15.9,66,21.6,66"/>
</g>
</svg>
